<svg xmlns="http://www.w3.org/2000/svg" xmlns:xlink="http://www.w3.org/1999/xlink" viewBox="0 0 750 500" style="enable-background:new 0 0 750 500" xml:space="preserve"><defs><path id="a" d="M-.003-.002h750v500h-750z"/></defs><clipPath id="b"><use xlink:href="#a" style="overflow:visible"/></clipPath><path style="clip-path:url(#b);fill:#fff" d="M-.003-.002h750v500h-750z"/><g style="clip-path:url(#b)"><path style="fill:#243470" d="M552.541 335.115h-342.78c-7.843 0-14.201-6.358-14.201-14.201V91.331c0-7.843 6.358-14.201 14.201-14.201h342.781c7.843 0 14.201 6.358 14.201 14.201v229.583c-.001 7.843-6.359 14.201-14.202 14.201z"/><path transform="rotate(90 381.151 206.122)" style="fill:#e8f7ff" d="M270.401 38.773H491.9v334.698H270.401z"/><path style="fill:#fff" d="M227.501 194.584c-.575-9.024 1.044-18.262 5.287-26.838 10.518-21.261 31.605-30.06 54.073-30.06 23.893 0 44.704 17.565 50.631 40.548 8.501 32.963-15.852 68.13-50.632 68.13h-7.331c-29.206 0-50.319-24.942-52.028-51.78z"/><path transform="rotate(90 381.151 107.638)" style="fill:#cfefff" d="M368.886-59.711h24.53v334.698h-24.53z"/><path style="fill:#243470" d="M195.559 286.632v34.282c0 7.843 6.358 14.201 14.201 14.201h342.781c7.843 0 14.201-6.358 14.201-14.201v-34.282H195.559zm259.983 105.955-25.539-25.539H327.91l-25.539 25.539c-1.568 1.568-.665 11.462 2.558 11.462h148.055c3.223 0 3.889-10.132 2.558-11.462z"/><path style="fill:#003bb0" d="m430.003 367.048-5.171-31.933h-91.75l-5.171 31.933-25.539 25.539s151.943.382 153.171 0l-25.54-25.539z"/><path style="fill:#11215c" d="M424.832 335.115h-91.75l-30.711 57.472s151.943.382 153.171 0l-30.71-57.472z"/><path style="fill:#fff" d="M222.272 101.373h16.435v3.064h-16.435zm0 5.014h16.435v3.064h-16.435zm0 5.014h8.496v3.064h-8.496z"/><path style="fill:#ffdc40" d="M63.167 403.808h623.659v25.029H63.167z"/><g style="opacity:.73"><linearGradient id="c" gradientUnits="userSpaceOnUse" x1="383.494" y1="76.448" x2="515.77" y2="305.556"><stop offset="0" style="stop-color:#f8f6f5;stop-opacity:.2"/><stop offset=".207" style="stop-color:#fdfcfc;stop-opacity:.4976"/><stop offset=".556" style="stop-color:#fff"/></linearGradient><path style="fill:url(#c)" d="M350.717 286.632V95.373h197.83v191.259z"/></g><path transform="rotate(-180 491.712 221.792)" style="fill:#cfefff" d="M457.107 187.186h69.21v69.21h-69.21z"/><path transform="rotate(-180 491.712 138.827)" style="fill:none;stroke:#cfefff;stroke-width:.9684;stroke-miterlimit:10" d="M457.107 104.222h69.21v69.21h-69.21z"/><path style="fill:#73a8ff" d="M373.82 132.373h32.827v3.054H373.82z"/><path style="fill:#cfefff" d="M373.82 138.99h32.827v3.054H373.82zm0 6.616h32.827v3.054H373.82zm51.658-13.233h16.287v16.286h-16.287z"/><path style="fill:#73a8ff" d="M408.938 157.168h32.827v3.054h-32.827z"/><path transform="rotate(-180 425.351 165.312)" style="fill:#cfefff" d="M408.938 163.785h32.827v3.054h-32.827z"/><path transform="rotate(-180 425.351 171.928)" style="fill:#cfefff" d="M408.938 170.401h32.827v3.054h-32.827z"/><path transform="rotate(-180 381.963 165.312)" style="fill:#cfefff" d="M373.82 157.168h16.287v16.287H373.82z"/><path style="fill:#ff91ca" d="M373.82 184.546h32.827v3.054H373.82z"/><path style="fill:#cfefff" d="M373.82 191.162h32.827v3.054H373.82zm0 6.617h32.827v3.054H373.82zm51.658-13.233h16.287v16.287h-16.287z"/><path style="fill:#18d99f" d="M408.938 212.246h32.827v3.054h-32.827z"/><path transform="rotate(-180 425.351 220.39)" style="fill:#cfefff" d="M408.938 218.862h32.827v3.054h-32.827z"/><path transform="rotate(-180 425.351 227.006)" style="fill:#cfefff" d="M408.938 225.479h32.827v3.054h-32.827z"/><path transform="rotate(-180 381.963 220.39)" style="fill:#cfefff" d="M373.82 212.246h16.287v16.286H373.82z"/><path style="fill:#ffd930" d="M373.82 239.36h32.827v3.054H373.82z"/><path style="fill:#cfefff" d="M373.82 245.976h32.827v3.054H373.82zm0 6.617h32.827v3.054H373.82zm51.658-13.233h16.287v16.286h-16.287z"/><path style="fill:#243470" d="m441.912 117.23-67.858 4.485-.381-13.187 67.857-.383z"/><path style="fill:#18d99f" d="M434.191 144.947a1.53 1.53 0 0 1-1.038-.407l-4.782-4.43a1.527 1.527 0 1 1 2.076-2.24l3.402 3.152 7.832-13.058a1.527 1.527 0 0 1 2.618 1.571l-8.799 14.671a1.525 1.525 0 0 1-1.309.741zm0 52.453a1.53 1.53 0 0 1-1.038-.407l-4.782-4.43a1.527 1.527 0 1 1 2.076-2.24l3.402 3.152 7.832-13.058a1.526 1.526 0 1 1 2.618 1.571l-8.799 14.671a1.525 1.525 0 0 1-1.309.741zm-51.416-28.315c-.382 0-.753-.144-1.038-.407l-4.782-4.43a1.527 1.527 0 1 1 2.076-2.24l3.402 3.152 7.832-13.058a1.526 1.526 0 1 1 2.618 1.571l-8.799 14.671a1.525 1.525 0 0 1-1.309.741z"/><path style="fill:#73a8ff" d="M508.631 235.209c-.199-1.297-.955-2.146-1.555-3.252-.64-1.181-.757-2.325-.445-3.635.249-1.049.634-2.094.563-3.169-.092-1.393-.945-2.601-2.002-3.459-.843-.684-1.281-.613-1.352-1.821-.053-.898.294-1.801.161-2.707-.125-.856-.457-1.568-.982-2.263-1.265-1.672-3.111-2.345-3.355-4.68-.014-.131-.02-.262-.03-.393.002-.075.011-.148.011-.223a9.095 9.095 0 0 0-9.096-9.096l-.048.002-.048-.002a9.096 9.096 0 0 0-9.096 9.096c0 .075.009.148.011.223-.01.131-.016.262-.03.393-.244 2.335-2.09 3.008-3.355 4.68-.526.695-.857 1.407-.982 2.263-.132.906.214 1.809.161 2.707-.063 1.075-.752 1.321-1.497 1.94-.875.726-1.5 1.665-1.75 2.784-.306 1.367.235 2.441.49 3.757.255 1.318.141 2.187-.131 2.888a.5.5 0 0 1 .211.101c5.098 4.155 10.973 6.467 17.248 7.714h15.756c.261 0 .406-.171.449-.368.591-1.097.886-2.224.693-3.48z"/><path style="fill:#ffd930" d="M481.725 250.454c-.107 2.033-.386 4.016-.729 5.883h19.034a73.144 73.144 0 0 1 .013-3.139c.272-10.34 2.226-21.384 2.129-23.046-.144-2.457-1.416-5.509-3.882-6.428-.955-.356-11.178-1.278-12.18-1.099-2.591.463-4.389 3.237-4.97 5.629-.418 1.71 1.102 12.393.585 22.2z"/><path transform="rotate(-131.274 489.187 241.076)" style="fill:#18d99f" d="M444.458 233.457h89.506v15.255h-89.506z"/><path style="fill:#fff" d="m453.957 212.482 11.466-10.063-17.012-8.928c-.556-.291-1.316.376-1.099.965l6.645 18.026z"/><path style="fill:#18d99f" d="m448.411 193.491 4.599 2.413-3.901 3.424-1.796-4.873c-.218-.588.542-1.256 1.098-.964z"/><path transform="rotate(-131.274 489.187 241.076)" style="fill:#fff" d="M444.458 238.49h89.506v5.191h-89.506z"/><path style="fill:#ffccb5" d="M491.885 240.433c.149-.108.361-.145.658-.074 1.988.477 3.299 2.053 4.161 3.816.133-.351.306-.691.493-1.004.183-.308.585-.023.512.272-.223.895-.355 2.44-1.134 3.048-.57.445-1.347.342-1.995.148-1.634-.49-2.2-2.078-2.641-3.564-.194-.653-.783-2.113-.054-2.642z"/><path style="fill:#ffd930" d="M498.015 244.08c1.427 2.309 3.127 4.353 4.978 6.274.561-4.593-.194-9.096-1.911-13.46 1.289-6.524.442-8.783-1.008-12.044 3.739 3.982 6.828 10.478 8.133 15.611 1.548 6.087 1.424 12.5-1.225 18.26-.151.329-.441.659-.831.693-1.557.136-3.022-.68-4.335-1.779a.857.857 0 0 1-.258-.221c-1.131-.992-2.142-2.166-2.989-3.08-2.184-2.357-4.005-4.978-5.502-7.798 1.75-.547 3.412-1.332 4.948-2.456z"/><path style="fill:#ffccb5" d="M485.194 229.571c-.182-.023-.387.046-.613.251-1.518 1.371-1.913 3.382-1.827 5.342a6.435 6.435 0 0 0-.913-.646c-.308-.182-.525.26-.319.484.624.678 1.48 1.972 2.455 2.133.713.118 1.347-.345 1.822-.825 1.2-1.212.937-2.878.613-4.393-.143-.667-.325-2.231-1.218-2.346z"/><path style="fill:#ffd930" d="m478.814 240.745 1.666 1.874s.932-4.202 1.079-6.912c1.886.251 3.721.145 5.521-.211.035 3.193-.309 6.365-1.098 9.48-.349 1.377-.691 2.762-1.201 4.091-.552 1.439-1.314 3.514-3.025 3.892-.797.176-1.827.1-2.321-.55-4.806-6.321-5.775-14.552-5.27-16.961l4.649 5.297z"/><path style="fill:#ffccb5" d="M490.551 225.899a2.362 2.362 0 0 0 2.362-2.362v-6.336h-4.724v6.336a2.361 2.361 0 0 0 2.362 2.362z"/><ellipse style="fill:#ffccb5" cx="490.551" cy="212.996" rx="7.841" ry="9.543"/><path style="fill:#73a8ff" d="M482.493 213.818a9.044 9.044 0 0 1-1.036-4.372c.084-4.803 4.085-8.827 8.887-8.933a9.096 9.096 0 0 1 9.303 9.094 9.049 9.049 0 0 1-1.038 4.212h-6.739a5.666 5.666 0 0 1-5.586-4.721l-.327 1.823a3.52 3.52 0 0 1-3.464 2.897z"/><path style="fill:#cfefff" d="m491.704 145.406-2.324-3.063-3.095 2.349a11.81 11.81 0 0 0-4.667-2.764l.53-3.865-3.81-.523-.528 3.848c-1.797.036-3.594.48-5.253 1.349l-2.36-3.11-3.063 2.324 2.348 3.095a11.823 11.823 0 0 0-2.764 4.667l-3.865-.53-.523 3.81 3.848.528a11.796 11.796 0 0 0 1.349 5.253l-3.11 2.36 2.325 3.063 3.095-2.348a11.81 11.81 0 0 0 4.667 2.764l-.53 3.865 3.81.522.528-3.848a11.812 11.812 0 0 0 5.253-1.348l2.36 3.11 3.064-2.325-2.349-3.095a11.81 11.81 0 0 0 2.764-4.667l3.865.53.522-3.81-3.848-.528a11.808 11.808 0 0 0-1.348-5.253l3.109-2.36zm-11.483 10.711a3.575 3.575 0 1 1-4.322-5.697 3.575 3.575 0 0 1 4.322 5.697z"/><path style="fill:#cfefff" d="m520.315 122.013-2.191-4.24-4.285 2.214a14.66 14.66 0 0 0-5.119-4.373l1.47-4.614-4.548-1.449-1.464 4.593a14.663 14.663 0 0 0-6.711.532l-2.224-4.305-4.24 2.191 2.214 4.285a14.67 14.67 0 0 0-4.373 5.119l-4.614-1.47-1.449 4.548 4.593 1.464a14.663 14.663 0 0 0 .532 6.711l-4.305 2.224 2.191 4.241 4.285-2.214a14.66 14.66 0 0 0 5.119 4.373l-1.47 4.614 4.548 1.449 1.464-4.594c2.206.338 4.497.178 6.711-.532l2.224 4.305 4.241-2.191-2.214-4.285a14.67 14.67 0 0 0 4.373-5.119l4.614 1.47 1.449-4.548-4.594-1.464a14.663 14.663 0 0 0-.532-6.711l4.305-2.224zm-16.32 10.657a4.437 4.437 0 1 1-4.074-7.884 4.437 4.437 0 0 1 4.074 7.884z"/><path style="fill:#18d99f" d="M649.844 375.853c-4.91 0-9.596.948-13.898 2.655-4.355-9.121-13.637-15.44-24.418-15.44-3.473 0-6.781.678-9.831 1.869-2.938-6.278-9.294-10.637-16.683-10.637-9.103 0-16.659 6.601-18.155 15.277-2.646-2.847-6.411-4.639-10.605-4.639-5.81 0-10.806 3.427-13.116 8.363a21.2 21.2 0 0 0-7.729-1.469c-8.476 0-15.774 4.967-19.197 12.138a29.554 29.554 0 0 0-10.926-2.088c-13.788 0-25.367 9.417-28.684 22.167H686.33c-4.221-16.218-18.948-28.196-36.486-28.196z"/><path style="fill:#ff91ca" d="M615.024 389.12c-1.765-.031-3.536-.211-5.277-.46l.714-4.182c-.061.36 6.207.372 6.765.323 1.845-.165 4.665-.274 5.869-1.928.926-1.273.413.786.408-.67l-.028-8.6c-.006-1.806-.065-3.769-1.208-5.167-.841-1.029-2.174-1.58-3.5-1.665-1.326-.085-2.65.256-3.878.763l-1.693-3.801a10.248 10.248 0 0 1 7.211-.998c2.602.607 5.106 2.284 6.249 4.722.797 1.698.903 3.539.987 5.018.288 5.064.675 4.848-.15 9.883-.181 1.107-.437 2.234-1.066 3.163-.839 1.241-2.242 1.98-3.654 2.481-2.481.879-5.107 1.165-7.749 1.118z"/><path style="fill:#ff63b0" d="M613.877 349.698c5.326 3.055.813 6.682-10.079 8.101-10.892 1.42-24.039.094-29.365-2.961-5.326-3.055-.813-6.681 10.079-8.101 10.892-1.419 24.039-.094 29.365 2.961z"/><path style="fill:#ff91ca" d="M594.021 352.268c6.332.026 12.243.925 15.728 2.343 2.027-.802 2.812-1.626 2.91-2.119.096-.485-.456-1.111-1.515-1.718-3.127-1.794-9.841-2.972-17.105-3.002a62.441 62.441 0 0 0-8.295.496c-7.589.989-9.922 2.904-10.095 3.778-.097.485.455 1.111 1.515 1.719.401.23.864.45 1.377.659 1.567-.62 3.876-1.228 7.185-1.659 2.614-.343 5.405-.509 8.295-.497z"/><path style="fill:#ff91ca" d="M616.104 352.561c-.229 2.191-4.721 4.25-12.306 5.238-10.892 1.419-24.04.094-29.365-2.961-1.43-.82-2.234-1.678-2.229-2.53-.003.521.274 51.699.274 51.699l42.9.041.726-51.487z"/><linearGradient id="d" gradientUnits="userSpaceOnUse" x1="594.145" y1="312.279" x2="594.145" y2="358.811"><stop offset="0" style="stop-color:#fff;stop-opacity:0"/><stop offset=".566" style="stop-color:#fff"/></linearGradient><path style="fill:url(#d)" d="M599.615 352.524c1.533-3.03 1.522-6.256.018-9.548-1.711-3.743-4.51-6.446-4.753-10.902-.256-4.714 3.65-8.558 6.54-11.746 2.81-3.1 5.926-6.594 6.456-10.933.987-8.079-9.629-12.677-2.88-21.009.249-.307-.173-.749-.443-.443-2.486 2.827-3.739 6.347-2.612 10.093.799 2.655 3.52 4.955 3.941 7.673.935 6.042-3.577 10.468-7.233 14.421-2.887 3.122-5.614 6.474-6.019 10.851-.736 7.951 8.008 13.709 4.017 21.351a68.618 68.618 0 0 0-4.788-.038c1.399-1.691 1.943-3.849 1.663-6.296-.27-2.358-1.38-4.52-2.415-6.612-2.891-5.848-3.421-10.247.153-16.174 3.375-5.598 10.115-15.964.669-19.809-.19-.078-.31.228-.138.327 10.996 6.306-4.013 18.281-5.252 25.748-1.253 7.55 9.245 16.637 2.111 22.71a.987.987 0 0 0-.24.302c-.91.075-1.81.162-2.684.276-3.309.431-5.618 1.039-7.185 1.659 3.485 1.418 9.397 2.317 15.729 2.343a62.553 62.553 0 0 0 8.293-.495c3.31-.431 5.619-1.039 7.186-1.659-2.426-.991-6.031-1.726-10.134-2.09z"/><path style="fill:#18d99f" d="M603.653 385.073c-3.304 0-6.458.638-9.353 1.787-2.931-6.139-9.178-10.391-16.434-10.391-2.337 0-4.563.456-6.616 1.258-1.977-4.225-6.255-7.159-11.228-7.159-6.126 0-11.211 4.443-12.219 10.281a9.715 9.715 0 0 0-7.137-3.122c-3.91 0-7.272 2.306-8.827 5.628a14.266 14.266 0 0 0-5.202-.989c-5.704 0-10.616 3.343-12.92 8.169a19.891 19.891 0 0 0-7.353-1.405c-9.28 0-17.072 6.338-19.304 14.919h141.146c-2.838-10.914-12.75-18.976-24.553-18.976z"/><path style="fill:#e8f7ff" d="M63.987 233.499h87.394v45.27H63.987z"/><path style="fill:#ffd930" d="M63.987 233.499h87.394v6.187H63.987z"/><path style="fill:#fff" d="M66.779 236.517a.755.755 0 1 1 1.51 0 .755.755 0 0 1-1.51 0zm3.772 0a.755.755 0 1 1 1.51 0 .755.755 0 0 1-1.51 0zm3.773 0a.755.755 0 1 1 1.51 0 .755.755 0 0 1-1.51 0z"/><path style="fill:#ff91ca" d="M69.063 254.388c.046-5.12 4.235-9.233 9.355-9.187 5.12.046 9.233 4.235 9.187 9.355a9.272 9.272 0 0 1-18.542-.168z"/><path style="fill:#fff" d="M72.324 254.417a6.01 6.01 0 1 1 12.021.109 6.01 6.01 0 0 1-12.021-.109zm18.216-7.234h55.765v1.279H90.54zm0 3.708h55.765v1.279H90.54zm0 3.709h55.765v1.279H90.54zm0 3.708h55.765v1.279H90.54zm0 3.709h55.765v1.279H90.54zm-21.478 6.394h77.243v5.243H69.062z"/><path style="fill:#e8f7ff" d="M63.987 285.113h87.394v29.208H63.987z"/><path style="fill:#73a8ff" d="M63.987 285.113h87.394v6.187H63.987z"/><path style="fill:#fff" d="M66.779 288.131a.754.754 0 1 1 1.508 0 .754.754 0 0 1-1.508 0zm3.772 0a.754.754 0 1 1 1.508 0 .754.754 0 0 1-1.508 0zm3.773 0a.754.754 0 1 1 1.508 0 .754.754 0 0 1-1.508 0z"/><path style="fill:#18d99f" d="M69.063 302.79a6.03 6.03 0 1 1 12.061.11 6.03 6.03 0 0 1-12.061-.11z"/><path style="fill:#fff" d="M71.045 302.808a4.049 4.049 0 1 1 8.097.073 4.049 4.049 0 0 1-8.097-.073zm13.457-4.011h61.803v1.279H84.502zm0 3.708h61.803v1.279H84.502zm0 3.709h61.803v1.279H84.502z"/><path style="fill:#e8f7ff" d="M63.987 317.945h87.394v29.208H63.987z"/><path style="fill:#243470" d="M63.987 317.945h87.394v6.187H63.987z"/><path style="fill:#fff" d="M66.779 320.963a.755.755 0 1 1 1.51 0 .755.755 0 0 1-1.51 0zm3.772 0a.755.755 0 1 1 1.51 0 .755.755 0 0 1-1.51 0zm3.773 0a.755.755 0 1 1 1.51 0 .755.755 0 0 1-1.51 0z"/><path style="fill:#ffd930" d="M69.063 335.622a6.03 6.03 0 1 1 12.061.11 6.03 6.03 0 0 1-12.061-.11z"/><path style="fill:#fff" d="M71.045 335.64a4.049 4.049 0 1 1 8.097.073 4.049 4.049 0 0 1-8.097-.073zm13.457-4.011h61.803v1.279H84.502zm0 3.708h61.803v1.279H84.502zm0 3.709h61.803v1.279H84.502z"/><path transform="rotate(-180 109.383 141.436)" style="fill:#e8f7ff" d="M63.167 95.221h92.43v92.43h-92.43z"/><path style="fill:#ff91ca" d="M109.383 166.437c13.808 0 25.002-11.194 25.002-25.002 0-13.808-11.194-25.002-25.002-25.002-13.808 0-25.002 11.194-25.002 25.002 0 13.809 11.194 25.002 25.002 25.002z"/><path style="fill:#fff" d="m99.264 152.893 24.434-11.457-24.434-11.458z"/><path style="fill:#ffdc40" d="m129.367 164.908-17.588 52.074L97.8 203.003l-17.944 17.944-6.528-6.528 17.944-17.944-13.978-13.979z"/><path style="fill:#ffc09c" d="M283.849 229.073h46.854v43.296h-46.854zm-21.382-40.572a5.304 5.304 0 1 0-10.452 1.64s2.592 4.751 5.152 11.691c1.337 3.625 1.345 7.514 1.027 11.365-.167 2.023 1.157 4.142 3.776 3.994 5.56-.315.497-28.69.497-28.69zm93.843-.781a5.304 5.304 0 1 1 10.386 2.013s-2.76 4.655-5.567 11.499c-1.466 3.575-1.613 7.461-1.433 11.321.095 2.027-1.304 4.098-3.917 3.856-5.544-.513.531-28.689.531-28.689z"/><path style="fill:#ffb78d" d="M192.813 429.566h-15.825v-7.912c0-8.74 7.085-15.825 15.825-15.825v23.737z"/><path style="fill:#ffc09c" d="m204.484 353.608-26.921 73.284a10.496 10.496 0 0 0 .464 8.313l2.188 4.377a10.496 10.496 0 0 0 11.748 5.533 23.747 23.747 0 0 0 16.95-14.95l24.054-65.48-28.483-11.077z"/><path style="fill:#ffb78d" d="M421.739 429.566h15.825v-7.912c0-8.74-7.085-15.825-15.825-15.825v23.737z"/><path style="fill:#ffc09c" d="m410.068 353.608 26.921 73.284c.998 2.717.83 5.725-.464 8.313l-2.189 4.377a10.496 10.496 0 0 1-11.748 5.533 23.747 23.747 0 0 1-16.95-14.95l-24.054-65.48 28.484-11.077z"/><path style="fill:#00064a" d="M237.962 467.644c.294 24.639-1.808 49.821 8.054 58.864 22.574 20.703 99.947 20.703 122.521 0 9.861-9.044 7.759-34.226 8.053-58.864H237.962z"/><path style="fill:#73a8ff" d="M363.434 282.005c-11.694-6.117-24.773-9.102-37.971-9.102h-36.327c-13.878 0-27.581 3.358-39.75 10.029-18.958 10.393-42.57 31.275-54.578 72.842l45.664 18.604s-10.712 90.507 9.445 108.992c21.137 19.384 93.582 19.384 114.718 0 20.157-18.486 9.445-108.992 9.445-108.992l45.663-18.604c-12.376-42.842-37.079-63.711-56.309-73.769z"/><path style="fill:#f8f6f5" d="m414.585 540.242-.019-.345c-.817-12.943-12.708-22.309-25.597-20.877l-23.748 2.639a524.721 524.721 0 0 1-115.89 0l-23.748-2.639c-12.889-1.432-24.78 7.934-25.597 20.877-.007.115-.014.23-.019.345-.306 6.36 4.928 11.624 11.295 11.624H403.29"/><path style="fill:#f2f0ef" d="M229.802 524.753h156.817l2.785-129.6c3.868-56.73-49.8-101.307-104.291-85.06-1.283.383-2.567.794-3.852 1.234-34.834 11.927-56.792 46.436-54.288 83.17 1.037 15.214 2.114 119.774 2.829 130.256z"/><path style="fill:#11215c" d="M321.51 386.242h-28.469c-8.353 0-15.124-6.771-15.124-15.124 0-8.353 6.771-15.124 15.124-15.124h28.469c8.353 0 15.124 6.771 15.124 15.124 0 8.353-6.771 15.124-15.124 15.124z"/><path style="fill:#243470" d="M307.276 590.859c-7.37 0-13.345-5.974-13.345-13.344V367.979a4.867 4.867 0 0 1 4.867-4.867h16.954a4.867 4.867 0 0 1 4.867 4.867v209.535c.002 7.37-5.973 13.345-13.343 13.345z"/><path style="fill:#11215c" d="M343.751 579.889h-72.95c-5.896 0-10.676-4.78-10.676-10.676h94.302c0 5.896-4.78 10.676-10.676 10.676zm42.703-10.676H228.098c-9.827 0-17.793-7.966-17.793-17.793h193.941c0 9.827-7.966 17.793-17.792 17.793z"/><path style="fill:#ffdc40" d="M371.539 265.669c-2.834-7.459-4.932-15.203-1.16-22.798 5.299-10.67 1.382-14.499-3.926-24.203-3.198-5.846-3.587-12.803-3.291-19.459.795-17.911.355-35.256-10.768-50.319-3.333-4.513-7.351-8.145-11.833-10.886-.451-4.236-3.504-8.163-8.989-7.872-.344.018-.654.083-.974.134-.957-5.57-5.187-10.499-12.473-10.113-7.406.392-11.102 5.929-11.354 11.682-.12.173-.234.352-.356.522-.039.002-.076.009-.115.004-15.823-2.258-30.916 3.605-40.46 16.529-11.123 15.063-11.563 32.408-10.768 50.319.296 6.656-.094 13.614-3.292 19.459-5.309 9.704-9.225 13.532-3.926 24.203 3.772 7.595 1.674 15.339-1.161 22.798-3.132 8.244-4.048 16.698-.715 25.1 9.038 22.784 38.051 21.814 58.659 22.226 36.624.732 61.158-5.947 67.616-22.226 3.334-8.402 2.418-16.856-.714-25.1z"/><path transform="rotate(-180 628.474 141.485)" style="fill:#e8f7ff" d="M582.259 95.27h92.43v92.43h-92.43z"/><path transform="rotate(-180 628.474 249.771)" style="fill:#e8f7ff" d="M582.259 203.556h92.43v92.43h-92.43z"/><path style="fill:#ffdc40" d="M582.259 187.7h19.642l-3.636-29.364c21.247-11.074 19.799-63.066 19.799-63.066H582.26v92.43zm92.494 0h-19.642l3.636-29.364C637.5 147.262 638.949 95.27 638.949 95.27h35.804v92.43z"/><path style="fill:none;stroke:#fff;stroke-width:4.8487;stroke-miterlimit:10" d="M628.474 95.221v92.528m-46.264-28.486h92.529"/><path style="fill:#ff91ca" d="m663.62 272.251-69.292.01-4.105-46.624 73.48 2.736z"/><path style="fill:#fff" d="m624.008 261.176-25.58 1.503v1.379l25.58-1.671zm-4.404 2.491-21.176 1.244v1.379l21.176-1.383zm0 2.232-21.176 1.244v1.38l21.176-1.384zm15.566-6.768-44.947-33.494 73.48 2.736z"/><path style="fill:#73a8ff" d="m635.17 255.914-44.947-30.277 73.48 2.736z"/><path style="fill:#243470" d="M659.187 232.784a4.424 4.424 0 1 1 6.257-6.257 4.424 4.424 0 1 1-6.257 6.257z"/><path style="fill:#fff" d="M665.068 229.3h-2.398v-2.397h-.711v2.397h-2.397v.711h2.397v2.398h.711v-2.398h2.398z"/></g></svg>