<?xml version="1.0" encoding="utf-8"?>
<!-- Generator: Adobe Illustrator 27.5.0, SVG Export Plug-In . SVG Version: 6.00 Build 0)  -->
<svg version="1.1" xmlns="http://www.w3.org/2000/svg" xmlns:xlink="http://www.w3.org/1999/xlink" x="0px" y="0px"
	 viewBox="0 0 750 500" style="enable-background:new 0 0 750 500;" xml:space="preserve">
<g id="BACKGROUND">
	<g>
		<defs>
			<rect id="SVGID_1_" x="-0.003" y="-0.002" width="750" height="500"/>
		</defs>
		<clipPath id="SVGID_00000015347464433157657150000014732631256084166306_">
			<use xlink:href="#SVGID_1_"  style="overflow:visible;"/>
		</clipPath>
		
			<rect x="-0.003" y="-0.002" style="clip-path:url(#SVGID_00000015347464433157657150000014732631256084166306_);fill:#FFFFFF;" width="750" height="500"/>
		<g style="clip-path:url(#SVGID_00000015347464433157657150000014732631256084166306_);">
			<g>
				<g>
					<g>
						<path style="fill:#243470;" d="M552.541,335.115H209.761c-7.843,0-14.201-6.358-14.201-14.201V91.331
							c0-7.843,6.358-14.201,14.201-14.201h342.781c7.843,0,14.201,6.358,14.201,14.201v229.583
							C566.742,328.757,560.384,335.115,552.541,335.115z"/>
						
							<rect x="270.401" y="38.773" transform="matrix(-1.836970e-16 1 -1 -1.836970e-16 587.273 -175.029)" style="fill:#E8F7FF;" width="221.499" height="334.698"/>
						<path style="fill:#FFFFFF;" d="M227.501,194.584c-0.575-9.024,1.044-18.262,5.287-26.838
							c10.518-21.261,31.605-30.06,54.073-30.06c23.893,0,44.704,17.565,50.631,40.548c8.501,32.963-15.852,68.13-50.632,68.13
							c0,0-7.329,0-7.331,0C250.323,246.364,229.21,221.422,227.501,194.584z"/>
						
							<rect x="368.886" y="-59.711" transform="matrix(-1.836970e-16 1 -1 -1.836970e-16 488.7887 -273.5133)" style="fill:#CFEFFF;" width="24.53" height="334.698"/>
						<path style="fill:#243470;" d="M195.559,286.632v34.282c0,7.843,6.358,14.201,14.201,14.201h342.781
							c7.843,0,14.201-6.358,14.201-14.201v-34.282H195.559z"/>
					</g>
					<g>
						<path style="fill:#243470;" d="M455.542,392.587l-25.539-25.539h-51.046H327.91l-25.539,25.539
							c-1.568,1.568-0.665,11.462,2.558,11.462h74.028h74.027C456.207,404.049,456.873,393.917,455.542,392.587z"/>
						<path style="fill:#003BB0;" d="M430.003,367.048l-5.171-31.933h-91.75l-5.171,31.933l-25.539,25.539
							c0,0,151.943,0.382,153.171,0L430.003,367.048z"/>
						<path style="fill:#11215C;" d="M424.832,335.115h-91.75l-30.711,57.472c0,0,151.943,0.382,153.171,0L424.832,335.115z"/>
					</g>
				</g>
				<g>
					<rect x="222.272" y="101.373" style="fill:#FFFFFF;" width="16.435" height="3.064"/>
					<rect x="222.272" y="106.387" style="fill:#FFFFFF;" width="16.435" height="3.064"/>
					<rect x="222.272" y="111.401" style="fill:#FFFFFF;" width="8.496" height="3.064"/>
				</g>
			</g>
			<rect x="63.167" y="403.808" style="fill:#FFDC40;" width="623.659" height="25.029"/>
			<g style="opacity:0.73;">
				<g>
					
						<linearGradient id="SVGID_00000109020990386015510470000000551168187680013468_" gradientUnits="userSpaceOnUse" x1="383.4941" y1="76.4485" x2="515.7696" y2="305.5564">
						<stop  offset="0" style="stop-color:#F8F6F5;stop-opacity:0.2"/>
						<stop  offset="0.2067" style="stop-color:#FDFCFC;stop-opacity:0.4976"/>
						<stop  offset="0.5558" style="stop-color:#FFFFFF"/>
					</linearGradient>
					<polygon style="fill:url(#SVGID_00000109020990386015510470000000551168187680013468_);" points="350.717,286.632 
						350.717,95.373 548.547,95.373 548.547,286.632 					"/>
				</g>
			</g>
			<g>
				<g>
					
						<rect x="457.107" y="187.186" transform="matrix(-1 -1.224647e-16 1.224647e-16 -1 983.4234 443.5831)" style="fill:#CFEFFF;" width="69.21" height="69.21"/>
				</g>
				<g>
					
						<rect x="457.107" y="104.222" transform="matrix(-1 -1.224647e-16 1.224647e-16 -1 983.4234 277.6537)" style="fill:none;stroke:#CFEFFF;stroke-width:0.9684;stroke-miterlimit:10;" width="69.21" height="69.21"/>
				</g>
				<g>
					<g>
						<g>
							<g>
								<g>
									<g>
										<rect x="373.82" y="132.373" style="fill:#73A8FF;" width="32.827" height="3.054"/>
										<rect x="373.82" y="138.99" style="fill:#CFEFFF;" width="32.827" height="3.054"/>
										<rect x="373.82" y="145.606" style="fill:#CFEFFF;" width="32.827" height="3.054"/>
									</g>
									<rect x="425.478" y="132.373" style="fill:#CFEFFF;" width="16.287" height="16.286"/>
								</g>
								<g>
									<g>
										<rect x="408.938" y="157.168" style="fill:#73A8FF;" width="32.827" height="3.054"/>
										
											<rect x="408.938" y="163.785" transform="matrix(-1 -1.224647e-16 1.224647e-16 -1 850.7023 330.6234)" style="fill:#CFEFFF;" width="32.827" height="3.054"/>
										
											<rect x="408.938" y="170.401" transform="matrix(-1 -1.224647e-16 1.224647e-16 -1 850.7023 343.8563)" style="fill:#CFEFFF;" width="32.827" height="3.054"/>
									</g>
									
										<rect x="373.82" y="157.168" transform="matrix(-1 -1.224647e-16 1.224647e-16 -1 763.9262 330.6234)" style="fill:#CFEFFF;" width="16.287" height="16.287"/>
								</g>
								<g>
									<g>
										<rect x="373.82" y="184.546" style="fill:#FF91CA;" width="32.827" height="3.054"/>
										<rect x="373.82" y="191.162" style="fill:#CFEFFF;" width="32.827" height="3.054"/>
										<rect x="373.82" y="197.779" style="fill:#CFEFFF;" width="32.827" height="3.054"/>
									</g>
									<rect x="425.478" y="184.546" style="fill:#CFEFFF;" width="16.287" height="16.287"/>
								</g>
								<g>
									<g>
										<rect x="408.938" y="212.246" style="fill:#18D99F;" width="32.827" height="3.054"/>
										
											<rect x="408.938" y="218.862" transform="matrix(-1 -1.224647e-16 1.224647e-16 -1 850.7023 440.7783)" style="fill:#CFEFFF;" width="32.827" height="3.054"/>
										
											<rect x="408.938" y="225.479" transform="matrix(-1 -1.224647e-16 1.224647e-16 -1 850.7023 454.0111)" style="fill:#CFEFFF;" width="32.827" height="3.054"/>
									</g>
									
										<rect x="373.82" y="212.246" transform="matrix(-1 -1.224647e-16 1.224647e-16 -1 763.9262 440.7783)" style="fill:#CFEFFF;" width="16.287" height="16.286"/>
								</g>
								<g>
									<g>
										<rect x="373.82" y="239.36" style="fill:#FFD930;" width="32.827" height="3.054"/>
										<rect x="373.82" y="245.976" style="fill:#CFEFFF;" width="32.827" height="3.054"/>
										<rect x="373.82" y="252.593" style="fill:#CFEFFF;" width="32.827" height="3.054"/>
									</g>
									<rect x="425.478" y="239.36" style="fill:#CFEFFF;" width="16.287" height="16.286"/>
								</g>
							</g>
							<polygon style="fill:#243470;" points="441.912,117.23 374.054,121.715 373.673,108.528 441.53,108.145 							"/>
						</g>
						<g>
							<g>
								<path style="fill:#18D99F;" d="M434.191,144.947c-0.382,0-0.754-0.144-1.038-0.407l-4.782-4.43
									c-0.618-0.573-0.656-1.539-0.082-2.158c0.573-0.618,1.539-0.656,2.158-0.082l3.402,3.152l7.832-13.058
									c0.433-0.724,1.371-0.958,2.094-0.524c0.723,0.434,0.958,1.372,0.524,2.095l-8.799,14.671
									c-0.237,0.395-0.638,0.661-1.094,0.726C434.334,144.942,434.262,144.947,434.191,144.947z"/>
							</g>
							<g>
								<path style="fill:#18D99F;" d="M434.191,197.4c-0.382,0-0.754-0.144-1.038-0.407l-4.782-4.43
									c-0.618-0.573-0.656-1.539-0.082-2.158c0.573-0.618,1.539-0.656,2.158-0.082l3.402,3.152l7.832-13.058
									c0.433-0.723,1.371-0.958,2.094-0.524c0.723,0.434,0.958,1.372,0.524,2.095l-8.799,14.671
									c-0.237,0.395-0.638,0.661-1.094,0.726C434.334,197.395,434.262,197.4,434.191,197.4z"/>
							</g>
							<g>
								<path style="fill:#18D99F;" d="M382.775,169.085c-0.382,0-0.753-0.144-1.038-0.407l-4.782-4.43
									c-0.618-0.573-0.656-1.539-0.082-2.158c0.574-0.618,1.539-0.656,2.158-0.082l3.402,3.152l7.832-13.058
									c0.433-0.723,1.371-0.958,2.094-0.524c0.723,0.434,0.958,1.372,0.524,2.095l-8.799,14.671
									c-0.237,0.395-0.638,0.661-1.094,0.726C382.919,169.08,382.847,169.085,382.775,169.085z"/>
							</g>
						</g>
					</g>
				</g>
				<g>
					<path style="fill:#73A8FF;" d="M508.631,235.209c-0.199-1.297-0.955-2.146-1.555-3.252c-0.64-1.181-0.757-2.325-0.445-3.635
						c0.249-1.049,0.634-2.094,0.563-3.169c-0.092-1.393-0.945-2.601-2.002-3.459c-0.843-0.684-1.281-0.613-1.352-1.821
						c-0.053-0.898,0.294-1.801,0.161-2.707c-0.125-0.856-0.457-1.568-0.982-2.263c-1.265-1.672-3.111-2.345-3.355-4.68
						c-0.014-0.131-0.02-0.262-0.03-0.393c0.002-0.075,0.011-0.148,0.011-0.223c0-5.024-4.072-9.096-9.096-9.096
						c-0.016,0-0.032,0.002-0.048,0.002c-0.016,0-0.032-0.002-0.048-0.002c-5.023,0-9.096,4.072-9.096,9.096
						c0,0.075,0.009,0.148,0.011,0.223c-0.01,0.131-0.016,0.262-0.03,0.393c-0.244,2.335-2.09,3.008-3.355,4.68
						c-0.526,0.695-0.857,1.407-0.982,2.263c-0.132,0.906,0.214,1.809,0.161,2.707c-0.063,1.075-0.752,1.321-1.497,1.94
						c-0.875,0.726-1.5,1.665-1.75,2.784c-0.306,1.367,0.235,2.441,0.49,3.757c0.255,1.318,0.141,2.187-0.131,2.888
						c0.072,0.016,0.143,0.046,0.211,0.101c5.098,4.155,10.973,6.467,17.248,7.714h15.756c0.261,0,0.406-0.171,0.449-0.368
						C508.529,237.592,508.824,236.465,508.631,235.209z"/>
					<path style="fill:#FFD930;" d="M481.725,250.454c-0.107,2.033-0.386,4.016-0.729,5.883h19.034
						c-0.017-1.033-0.015-2.084,0.013-3.139c0.272-10.34,2.226-21.384,2.129-23.046c-0.144-2.457-1.416-5.509-3.882-6.428
						c-0.955-0.356-11.178-1.278-12.18-1.099c-2.591,0.463-4.389,3.237-4.97,5.629C480.722,229.964,482.242,240.647,481.725,250.454
						z"/>
					<g>
						<g>
							
								<rect x="444.458" y="233.457" transform="matrix(-0.6597 -0.7516 0.7516 -0.6597 630.7319 767.7939)" style="fill:#18D99F;" width="89.506" height="15.255"/>
							<path style="fill:#FFFFFF;" d="M453.957,212.482l11.466-10.063l-17.012-8.928c-0.556-0.291-1.316,0.376-1.099,0.965
								L453.957,212.482z"/>
						</g>
						<path style="fill:#18D99F;" d="M448.411,193.491l4.599,2.413l-3.901,3.424l-1.796-4.873
							C447.095,193.867,447.855,193.199,448.411,193.491z"/>
						
							<rect x="444.458" y="238.49" transform="matrix(-0.6597 -0.7516 0.7516 -0.6597 630.7327 767.7936)" style="fill:#FFFFFF;" width="89.506" height="5.191"/>
					</g>
					<g>
						<path style="fill:#FFCCB5;" d="M491.885,240.433c0.149-0.108,0.361-0.145,0.658-0.074c1.988,0.477,3.299,2.053,4.161,3.816
							c0.133-0.351,0.306-0.691,0.493-1.004c0.183-0.308,0.585-0.023,0.512,0.272c-0.223,0.895-0.355,2.44-1.134,3.048
							c-0.57,0.445-1.347,0.342-1.995,0.148c-1.634-0.49-2.2-2.078-2.641-3.564C491.745,242.422,491.156,240.962,491.885,240.433z"
							/>
						<path style="fill:#FFD930;" d="M498.015,244.08c1.427,2.309,3.127,4.353,4.978,6.274c0.561-4.593-0.194-9.096-1.911-13.46
							c1.289-6.524,0.442-8.783-1.008-12.044c3.739,3.982,6.828,10.478,8.133,15.611c1.548,6.087,1.424,12.5-1.225,18.26
							c-0.151,0.329-0.441,0.659-0.831,0.693c-1.557,0.136-3.022-0.68-4.335-1.779c-0.1-0.056-0.188-0.131-0.258-0.221
							c-1.131-0.992-2.142-2.166-2.989-3.08c-2.184-2.357-4.005-4.978-5.502-7.798C494.817,245.989,496.479,245.204,498.015,244.08z
							"/>
					</g>
					<g>
						<path style="fill:#FFCCB5;" d="M485.194,229.571c-0.182-0.023-0.387,0.046-0.613,0.251c-1.518,1.371-1.913,3.382-1.827,5.342
							c-0.285-0.245-0.599-0.46-0.913-0.646c-0.308-0.182-0.525,0.26-0.319,0.484c0.624,0.678,1.48,1.972,2.455,2.133
							c0.713,0.118,1.347-0.345,1.822-0.825c1.2-1.212,0.937-2.878,0.613-4.393C486.269,231.25,486.087,229.686,485.194,229.571z"/>
						<path style="fill:#FFD930;" d="M478.814,240.745l1.666,1.874c0,0,0.932-4.202,1.079-6.912
							c1.886,0.251,3.721,0.145,5.521-0.211c0.035,3.193-0.309,6.365-1.098,9.48c-0.349,1.377-0.691,2.762-1.201,4.091
							c-0.552,1.439-1.314,3.514-3.025,3.892c-0.797,0.176-1.827,0.1-2.321-0.55c-4.806-6.321-5.775-14.552-5.27-16.961
							C476.086,237.637,478.814,240.745,478.814,240.745z"/>
					</g>
					<path style="fill:#FFCCB5;" d="M490.551,225.899L490.551,225.899c1.304,0,2.362-1.057,2.362-2.362v-6.336h-4.724v6.336
						C488.189,224.842,489.246,225.899,490.551,225.899z"/>
					<ellipse style="fill:#FFCCB5;" cx="490.551" cy="212.996" rx="7.841" ry="9.543"/>
					<path style="fill:#73A8FF;" d="M482.493,213.818c-0.683-1.304-1.064-2.791-1.036-4.372c0.084-4.803,4.085-8.827,8.887-8.933
						c5.118-0.114,9.303,4.001,9.303,9.094c0,1.521-0.378,2.952-1.038,4.212h-6.739c-2.764,0-5.125-1.995-5.586-4.721l0,0
						l-0.327,1.823C485.656,212.597,484.197,213.818,482.493,213.818L482.493,213.818z"/>
				</g>
				<g>
					<g>
						<path style="fill:#CFEFFF;" d="M491.704,145.406l-2.324-3.063l-3.095,2.349c-1.352-1.299-2.952-2.228-4.667-2.764l0.53-3.865
							l-3.81-0.523l-0.528,3.848c-1.797,0.036-3.594,0.48-5.253,1.349l-2.36-3.11l-3.063,2.324l2.348,3.095
							c-1.298,1.352-2.228,2.952-2.764,4.667l-3.865-0.53l-0.523,3.81l3.848,0.528c0.036,1.798,0.479,3.594,1.349,5.253l-3.11,2.36
							l2.325,3.063l3.095-2.348c1.352,1.299,2.952,2.228,4.667,2.764l-0.53,3.865l3.81,0.522l0.528-3.848
							c1.797-0.036,3.594-0.479,5.253-1.348l2.36,3.11l3.064-2.325l-2.349-3.095c1.299-1.352,2.228-2.952,2.764-4.667l3.865,0.53
							l0.522-3.81l-3.848-0.528c-0.036-1.798-0.479-3.594-1.348-5.253L491.704,145.406z M480.221,156.117
							c-1.573,1.193-3.815,0.886-5.009-0.687c-1.194-1.573-0.886-3.815,0.687-5.009c1.573-1.194,3.815-0.886,5.009,0.687
							C482.102,152.681,481.794,154.924,480.221,156.117z"/>
					</g>
					<g>
						<path style="fill:#CFEFFF;" d="M520.315,122.013l-2.191-4.24l-4.285,2.214c-1.377-1.876-3.136-3.353-5.119-4.373l1.47-4.614
							l-4.548-1.449l-1.464,4.593c-2.206-0.338-4.497-0.178-6.711,0.532l-2.224-4.305l-4.24,2.191l2.214,4.285
							c-1.875,1.377-3.353,3.136-4.373,5.119l-4.614-1.47l-1.449,4.548l4.593,1.464c-0.338,2.206-0.178,4.497,0.532,6.711
							l-4.305,2.224l2.191,4.241l4.285-2.214c1.377,1.876,3.136,3.353,5.119,4.373l-1.47,4.614l4.548,1.449l1.464-4.594
							c2.206,0.338,4.497,0.178,6.711-0.532l2.224,4.305l4.241-2.191l-2.214-4.285c1.875-1.377,3.353-3.136,4.373-5.119l4.614,1.47
							l1.449-4.548l-4.594-1.464c0.338-2.206,0.178-4.497-0.532-6.711L520.315,122.013z M503.995,132.67
							c-2.177,1.125-4.854,0.272-5.979-1.905c-1.125-2.177-0.272-4.854,1.905-5.979c2.177-1.125,4.855-0.272,5.98,1.905
							C507.026,128.868,506.173,131.545,503.995,132.67z"/>
					</g>
				</g>
			</g>
			<g>
				<path style="fill:#18D99F;" d="M649.844,375.853c-4.91,0-9.596,0.948-13.898,2.655c-4.355-9.121-13.637-15.44-24.418-15.44
					c-3.473,0-6.781,0.678-9.831,1.869c-2.938-6.278-9.294-10.637-16.683-10.637c-9.103,0-16.659,6.601-18.155,15.277
					c-2.646-2.847-6.411-4.639-10.605-4.639c-5.81,0-10.806,3.427-13.116,8.363c-2.398-0.936-4.999-1.469-7.729-1.469
					c-8.476,0-15.774,4.967-19.197,12.138c-3.382-1.342-7.066-2.088-10.926-2.088c-13.788,0-25.367,9.417-28.684,22.167h89.931
					h4.251h115.546C682.109,387.831,667.382,375.853,649.844,375.853z"/>
				<g>
					<g>
						<g>
							<g>
								<path style="fill:#FF91CA;" d="M615.024,389.12c-1.765-0.031-3.536-0.211-5.277-0.46c0.238-1.394,0.476-2.788,0.714-4.182
									c-0.061,0.36,6.207,0.372,6.765,0.323c1.845-0.165,4.665-0.274,5.869-1.928c0.926-1.273,0.413,0.786,0.408-0.67
									c-0.01-2.867-0.019-5.733-0.028-8.6c-0.006-1.806-0.065-3.769-1.208-5.167c-0.841-1.029-2.174-1.58-3.5-1.665
									c-1.326-0.085-2.65,0.256-3.878,0.763c-0.564-1.267-1.129-2.534-1.693-3.801c2.173-1.2,4.794-1.563,7.211-0.998
									c2.602,0.607,5.106,2.284,6.249,4.722c0.797,1.698,0.903,3.539,0.987,5.018c0.288,5.064,0.675,4.848-0.15,9.883
									c-0.181,1.107-0.437,2.234-1.066,3.163c-0.839,1.241-2.242,1.98-3.654,2.481
									C620.292,388.881,617.666,389.167,615.024,389.12z"/>
							</g>
							<g>
								<path style="fill:#FF63B0;" d="M613.877,349.698c5.326,3.055,0.813,6.682-10.079,8.101
									c-10.892,1.42-24.039,0.094-29.365-2.961c-5.326-3.055-0.813-6.681,10.079-8.101
									C595.404,345.318,608.551,346.643,613.877,349.698z"/>
								<path style="fill:#FF91CA;" d="M594.021,352.268c6.332,0.026,12.243,0.925,15.728,2.343c2.027-0.802,2.812-1.626,2.91-2.119
									c0.096-0.485-0.456-1.111-1.515-1.718c-3.127-1.794-9.841-2.972-17.105-3.002c-2.89-0.012-5.681,0.155-8.295,0.496
									c-7.589,0.989-9.922,2.904-10.095,3.778c-0.097,0.485,0.455,1.111,1.515,1.719c0.401,0.23,0.864,0.45,1.377,0.659
									c1.567-0.62,3.876-1.228,7.185-1.659C588.34,352.422,591.131,352.256,594.021,352.268z"/>
							</g>
						</g>
						<path style="fill:#FF91CA;" d="M616.104,352.561c-0.229,2.191-4.721,4.25-12.306,5.238
							c-10.892,1.419-24.04,0.094-29.365-2.961c-1.43-0.82-2.234-1.678-2.229-2.53c-0.003,0.521,0.274,51.699,0.274,51.699
							l42.9,0.041L616.104,352.561z"/>
					</g>
					
						<linearGradient id="SVGID_00000060721829701548998760000018009317345064352934_" gradientUnits="userSpaceOnUse" x1="594.1451" y1="312.2785" x2="594.1451" y2="358.8108">
						<stop  offset="0" style="stop-color:#FFFFFF;stop-opacity:0"/>
						<stop  offset="0.5663" style="stop-color:#FFFFFF"/>
					</linearGradient>
					<path style="fill:url(#SVGID_00000060721829701548998760000018009317345064352934_);" d="M599.615,352.524
						c1.533-3.03,1.522-6.256,0.018-9.548c-1.711-3.743-4.51-6.446-4.753-10.902c-0.256-4.714,3.65-8.558,6.54-11.746
						c2.81-3.1,5.926-6.594,6.456-10.933c0.987-8.079-9.629-12.677-2.88-21.009c0.249-0.307-0.173-0.749-0.443-0.443
						c-2.486,2.827-3.739,6.347-2.612,10.093c0.799,2.655,3.52,4.955,3.941,7.673c0.935,6.042-3.577,10.468-7.233,14.421
						c-2.887,3.122-5.614,6.474-6.019,10.851c-0.736,7.951,8.008,13.709,4.017,21.351c-0.864-0.037-1.74-0.059-2.625-0.063
						c-0.728-0.003-1.449,0.006-2.163,0.025c1.399-1.691,1.943-3.849,1.663-6.296c-0.27-2.358-1.38-4.52-2.415-6.612
						c-2.891-5.848-3.421-10.247,0.153-16.174c3.375-5.598,10.115-15.964,0.669-19.809c-0.19-0.078-0.31,0.228-0.138,0.327
						c10.996,6.306-4.013,18.281-5.252,25.748c-1.253,7.55,9.245,16.637,2.111,22.71c-0.108,0.092-0.184,0.194-0.24,0.302
						c-0.91,0.075-1.81,0.162-2.684,0.276c-3.309,0.431-5.618,1.039-7.185,1.659c3.485,1.418,9.397,2.317,15.729,2.343
						c2.891,0.012,5.681-0.155,8.293-0.495c3.31-0.431,5.619-1.039,7.186-1.659C607.323,353.623,603.718,352.888,599.615,352.524z"
						/>
				</g>
				<path style="fill:#18D99F;" d="M603.653,385.073c-3.304,0-6.458,0.638-9.353,1.787c-2.931-6.139-9.178-10.391-16.434-10.391
					c-2.337,0-4.563,0.456-6.616,1.258c-1.977-4.225-6.255-7.159-11.228-7.159c-6.126,0-11.211,4.443-12.219,10.281
					c-1.781-1.916-4.315-3.122-7.137-3.122c-3.91,0-7.272,2.306-8.827,5.628c-1.614-0.63-3.364-0.989-5.202-0.989
					c-5.704,0-10.616,3.343-12.92,8.169c-2.276-0.903-4.755-1.405-7.353-1.405c-9.28,0-17.072,6.338-19.304,14.919h60.523h2.861
					h77.762C625.368,393.135,615.456,385.073,603.653,385.073z"/>
			</g>
			<g>
				<g>
					<g>
						<g>
							<g>
								<rect x="63.987" y="233.499" style="fill:#E8F7FF;" width="87.394" height="45.27"/>
								<rect x="63.987" y="233.499" style="fill:#FFD930;" width="87.394" height="6.187"/>
							</g>
							<g>
								<path style="fill:#FFFFFF;" d="M66.779,236.517c0-0.417,0.338-0.755,0.754-0.755c0.417,0,0.755,0.338,0.755,0.755
									c0,0.417-0.338,0.755-0.755,0.755C67.116,237.272,66.779,236.934,66.779,236.517z"/>
								<path style="fill:#FFFFFF;" d="M70.551,236.517c0-0.417,0.338-0.755,0.754-0.755c0.417,0,0.755,0.338,0.755,0.755
									c0,0.417-0.338,0.755-0.755,0.755C70.889,237.272,70.551,236.934,70.551,236.517z"/>
								<path style="fill:#FFFFFF;" d="M74.324,236.517c0-0.417,0.338-0.755,0.755-0.755c0.417,0,0.754,0.338,0.754,0.755
									c0,0.417-0.338,0.755-0.754,0.755C74.661,237.272,74.324,236.934,74.324,236.517z"/>
							</g>
						</g>
						<g>
							<g>
								<path style="fill:#FF91CA;" d="M69.063,254.388c0.046-5.12,4.235-9.233,9.355-9.187c5.12,0.046,9.233,4.235,9.187,9.355
									c-0.046,5.12-4.235,9.233-9.355,9.187C73.13,263.696,69.017,259.508,69.063,254.388z"/>
							</g>
							<g>
								<path style="fill:#FFFFFF;" d="M72.324,254.417c0.03-3.319,2.745-5.986,6.065-5.956c3.319,0.03,5.986,2.745,5.956,6.065
									c-0.03,3.319-2.745,5.986-6.064,5.956C74.96,260.452,72.294,257.737,72.324,254.417z"/>
							</g>
							<g>
								<g>
									<rect x="90.54" y="247.183" style="fill:#FFFFFF;" width="55.765" height="1.279"/>
									<rect x="90.54" y="250.891" style="fill:#FFFFFF;" width="55.765" height="1.279"/>
									<rect x="90.54" y="254.6" style="fill:#FFFFFF;" width="55.765" height="1.279"/>
									<rect x="90.54" y="258.308" style="fill:#FFFFFF;" width="55.765" height="1.279"/>
									<rect x="90.54" y="262.017" style="fill:#FFFFFF;" width="55.765" height="1.279"/>
								</g>
								<rect x="69.062" y="268.411" style="fill:#FFFFFF;" width="77.243" height="5.243"/>
							</g>
						</g>
					</g>
					<g>
						<g>
							<g>
								<rect x="63.987" y="285.113" style="fill:#E8F7FF;" width="87.394" height="29.208"/>
								<rect x="63.987" y="285.113" style="fill:#73A8FF;" width="87.394" height="6.187"/>
							</g>
							<g>
								<path style="fill:#FFFFFF;" d="M66.779,288.131c0-0.417,0.338-0.754,0.754-0.754c0.417,0,0.755,0.338,0.755,0.754
									c0,0.417-0.338,0.755-0.755,0.755C67.116,288.886,66.779,288.548,66.779,288.131z"/>
								<path style="fill:#FFFFFF;" d="M70.551,288.131c0-0.417,0.338-0.754,0.754-0.754c0.417,0,0.755,0.338,0.755,0.754
									c0,0.417-0.338,0.755-0.755,0.755C70.889,288.886,70.551,288.548,70.551,288.131z"/>
								<path style="fill:#FFFFFF;" d="M74.324,288.131c0-0.417,0.338-0.754,0.755-0.754c0.417,0,0.754,0.338,0.754,0.754
									c0,0.417-0.338,0.755-0.754,0.755C74.661,288.886,74.324,288.548,74.324,288.131z"/>
							</g>
						</g>
						<g>
							<g>
								<path style="fill:#18D99F;" d="M69.063,302.79c0.03-3.331,2.755-6.006,6.085-5.976c3.33,0.03,6.006,2.754,5.976,6.085
									c-0.03,3.331-2.755,6.006-6.085,5.976C71.708,308.845,69.033,306.121,69.063,302.79z"/>
							</g>
							<g>
								<path style="fill:#FFFFFF;" d="M71.045,302.808c0.02-2.236,1.849-4.032,4.085-4.012c2.236,0.02,4.032,1.849,4.012,4.085
									c-0.02,2.236-1.849,4.032-4.085,4.012C72.821,306.873,71.025,305.044,71.045,302.808z"/>
							</g>
							<g>
								<g>
									<rect x="84.502" y="298.797" style="fill:#FFFFFF;" width="61.803" height="1.279"/>
									<rect x="84.502" y="302.505" style="fill:#FFFFFF;" width="61.803" height="1.279"/>
									<rect x="84.502" y="306.214" style="fill:#FFFFFF;" width="61.803" height="1.279"/>
								</g>
							</g>
						</g>
					</g>
					<g>
						<g>
							<g>
								<rect x="63.987" y="317.945" style="fill:#E8F7FF;" width="87.394" height="29.208"/>
								<rect x="63.987" y="317.945" style="fill:#243470;" width="87.394" height="6.187"/>
							</g>
							<g>
								<path style="fill:#FFFFFF;" d="M66.779,320.963c0-0.417,0.338-0.755,0.754-0.755c0.417,0,0.755,0.338,0.755,0.755
									c0,0.417-0.338,0.755-0.755,0.755C67.116,321.718,66.779,321.38,66.779,320.963z"/>
								<path style="fill:#FFFFFF;" d="M70.551,320.963c0-0.417,0.338-0.755,0.754-0.755c0.417,0,0.755,0.338,0.755,0.755
									c0,0.417-0.338,0.755-0.755,0.755C70.889,321.718,70.551,321.38,70.551,320.963z"/>
								<path style="fill:#FFFFFF;" d="M74.324,320.963c0-0.417,0.338-0.755,0.755-0.755c0.417,0,0.754,0.338,0.754,0.755
									c0,0.417-0.338,0.755-0.754,0.755C74.661,321.718,74.324,321.38,74.324,320.963z"/>
							</g>
						</g>
						<g>
							<g>
								<path style="fill:#FFD930;" d="M69.063,335.622c0.03-3.331,2.755-6.006,6.085-5.976c3.33,0.03,6.006,2.754,5.976,6.085
									c-0.03,3.33-2.755,6.006-6.085,5.976C71.708,341.677,69.033,338.953,69.063,335.622z"/>
							</g>
							<g>
								<path style="fill:#FFFFFF;" d="M71.045,335.64c0.02-2.236,1.849-4.032,4.085-4.012c2.236,0.02,4.032,1.849,4.012,4.085
									c-0.02,2.236-1.849,4.032-4.085,4.012C72.821,339.705,71.025,337.876,71.045,335.64z"/>
							</g>
							<g>
								<g>
									<rect x="84.502" y="331.629" style="fill:#FFFFFF;" width="61.803" height="1.279"/>
									<rect x="84.502" y="335.337" style="fill:#FFFFFF;" width="61.803" height="1.279"/>
									<rect x="84.502" y="339.046" style="fill:#FFFFFF;" width="61.803" height="1.279"/>
								</g>
							</g>
						</g>
					</g>
				</g>
				<g>
					<g>
						<g>
							
								<rect x="63.167" y="95.221" transform="matrix(-1 -1.224647e-16 1.224647e-16 -1 218.7653 282.8711)" style="fill:#E8F7FF;" width="92.43" height="92.43"/>
						</g>
					</g>
					<g>
						<g>
							<path style="fill:#FF91CA;" d="M109.383,166.437L109.383,166.437c13.808,0,25.002-11.194,25.002-25.002v0
								c0-13.808-11.194-25.002-25.002-25.002l0,0c-13.808,0-25.002,11.194-25.002,25.002v0
								C84.381,155.244,95.575,166.437,109.383,166.437z"/>
						</g>
					</g>
					<g>
						<g>
							<polygon style="fill:#FFFFFF;" points="99.264,152.893 123.698,141.436 99.264,129.978 							"/>
						</g>
					</g>
					<polygon style="fill:#FFDC40;" points="129.367,164.908 111.779,216.982 97.8,203.003 79.856,220.947 73.328,214.419 
						91.272,196.475 77.294,182.496 					"/>
				</g>
			</g>
			<g>
				<g>
					<g>
						<g>
							<rect x="283.849" y="229.073" style="fill:#FFC09C;" width="46.854" height="43.296"/>
							<g>
								<path style="fill:#FFC09C;" d="M262.467,188.501c-0.244-2.919-2.808-5.087-5.727-4.843l0,0
									c-3.222,0.269-5.455,3.334-4.725,6.483c0,0,2.592,4.751,5.152,11.691c1.337,3.625,1.345,7.514,1.027,11.365
									c-0.167,2.023,1.157,4.142,3.776,3.994C267.53,216.876,262.467,188.501,262.467,188.501z"/>
								<path style="fill:#FFC09C;" d="M356.31,187.72c0.348-2.908,2.988-4.984,5.896-4.635l0,0c3.21,0.384,5.332,3.527,4.49,6.648
									c0,0-2.76,4.655-5.567,11.499c-1.466,3.575-1.613,7.461-1.433,11.321c0.095,2.027-1.304,4.098-3.917,3.856
									C350.235,215.896,356.31,187.72,356.31,187.72z"/>
							</g>
						</g>
						<g>
							<g>
								<g>
									<path style="fill:#FFB78D;" d="M192.813,429.566h-15.825v-7.912c0-8.74,7.085-15.825,15.825-15.825l0,0V429.566z"/>
									<path style="fill:#FFC09C;" d="M204.484,353.608l-26.921,73.284c-0.998,2.717-0.83,5.725,0.464,8.313l2.188,4.377
										c2.168,4.336,7.024,6.623,11.748,5.533l0,0c7.811-1.803,14.186-7.425,16.95-14.95l24.054-65.48L204.484,353.608z"/>
								</g>
								<g>
									<path style="fill:#FFB78D;" d="M421.739,429.566h15.825v-7.912c0-8.74-7.085-15.825-15.825-15.825l0,0V429.566z"/>
									<path style="fill:#FFC09C;" d="M410.068,353.608l26.921,73.284c0.998,2.717,0.83,5.725-0.464,8.313l-2.189,4.377
										c-2.168,4.336-7.024,6.623-11.748,5.533l0,0c-7.811-1.803-14.186-7.425-16.95-14.95l-24.054-65.48L410.068,353.608z"/>
								</g>
							</g>
							<path style="fill:#00064A;" d="M237.962,467.644c0.294,24.639-1.808,49.821,8.054,58.864
								c22.574,20.703,99.947,20.703,122.521,0c9.861-9.044,7.759-34.226,8.053-58.864H237.962z"/>
							<path style="fill:#73A8FF;" d="M363.434,282.005c-11.694-6.117-24.773-9.102-37.971-9.102h-36.327
								c-13.878,0-27.581,3.358-39.75,10.029c-18.958,10.393-42.57,31.275-54.578,72.842l45.664,18.604
								c0,0-10.712,90.507,9.445,108.992c21.137,19.384,93.582,19.384,114.718,0c20.157-18.486,9.445-108.992,9.445-108.992
								l45.663-18.604C407.367,312.932,382.664,292.063,363.434,282.005z"/>
						</g>
					</g>
				</g>
				<g>
					<path style="fill:#F8F6F5;" d="M414.585,540.242c-0.006-0.115-0.012-0.23-0.019-0.345
						c-0.817-12.943-12.708-22.309-25.597-20.877l-23.748,2.639c-38.512,4.279-77.379,4.279-115.89,0l-23.748-2.639
						c-12.889-1.432-24.78,7.934-25.597,20.877c-0.007,0.115-0.014,0.23-0.019,0.345c-0.306,6.36,4.928,11.624,11.295,11.624H403.29
						"/>
					<path style="fill:#F2F0EF;" d="M229.802,524.753h156.817l2.785-129.6c3.868-56.73-49.8-101.307-104.291-85.06
						c-1.283,0.383-2.567,0.794-3.852,1.234c-34.834,11.927-56.792,46.436-54.288,83.17
						C228.01,409.711,229.087,514.271,229.802,524.753z"/>
					<path style="fill:#11215C;" d="M321.51,386.242h-28.469c-8.353,0-15.124-6.771-15.124-15.124l0,0
						c0-8.353,6.771-15.124,15.124-15.124h28.469c8.353,0,15.124,6.771,15.124,15.124l0,0
						C336.634,379.471,329.863,386.242,321.51,386.242z"/>
					<g>
						<path style="fill:#243470;" d="M307.276,590.859L307.276,590.859c-7.37,0-13.345-5.974-13.345-13.344V367.979
							c0-2.688,2.179-4.867,4.867-4.867h16.954c2.688,0,4.867,2.179,4.867,4.867v209.535
							C320.621,584.884,314.646,590.859,307.276,590.859z"/>
						<path style="fill:#11215C;" d="M343.751,579.889h-72.95c-5.896,0-10.676-4.78-10.676-10.676l0,0h94.302l0,0
							C354.427,575.109,349.647,579.889,343.751,579.889z"/>
						<path style="fill:#11215C;" d="M386.454,569.213H228.098c-9.827,0-17.793-7.966-17.793-17.793l0,0h193.941l0,0
							C404.246,561.247,396.28,569.213,386.454,569.213z"/>
					</g>
				</g>
				<path style="fill:#FFDC40;" d="M371.539,265.669c-2.834-7.459-4.932-15.203-1.16-22.798c5.299-10.67,1.382-14.499-3.926-24.203
					c-3.198-5.846-3.587-12.803-3.291-19.459c0.795-17.911,0.355-35.256-10.768-50.319c-3.333-4.513-7.351-8.145-11.833-10.886
					c-0.451-4.236-3.504-8.163-8.989-7.872c-0.344,0.018-0.654,0.083-0.974,0.134c-0.957-5.57-5.187-10.499-12.473-10.113
					c-7.406,0.392-11.102,5.929-11.354,11.682c-0.12,0.173-0.234,0.352-0.356,0.522c-0.039,0.002-0.076,0.009-0.115,0.004
					c-15.823-2.258-30.916,3.605-40.46,16.529c-11.123,15.063-11.563,32.408-10.768,50.319c0.296,6.656-0.094,13.614-3.292,19.459
					c-5.309,9.704-9.225,13.532-3.926,24.203c3.772,7.595,1.674,15.339-1.161,22.798c-3.132,8.244-4.048,16.698-0.715,25.1
					c9.038,22.784,38.051,21.814,58.659,22.226c36.624,0.732,61.158-5.947,67.616-22.226
					C375.587,282.367,374.671,273.913,371.539,265.669z"/>
			</g>
			<g>
				<g>
					
						<rect x="582.259" y="95.27" transform="matrix(-1 -1.224647e-16 1.224647e-16 -1 1256.9486 282.9695)" style="fill:#E8F7FF;" width="92.43" height="92.43"/>
					
						<rect x="582.259" y="203.556" transform="matrix(-1 -1.224647e-16 1.224647e-16 -1 1256.9486 499.543)" style="fill:#E8F7FF;" width="92.43" height="92.43"/>
					<path style="fill:#FFDC40;" d="M582.259,187.7h19.642l-3.636-29.364c21.247-11.074,19.799-63.066,19.799-63.066h-35.804V187.7z
						"/>
					<path style="fill:#FFDC40;" d="M674.753,187.7h-19.642l3.636-29.364C637.5,147.262,638.949,95.27,638.949,95.27h35.804V187.7z"
						/>
					<g>
						
							<line style="fill:none;stroke:#FFFFFF;stroke-width:4.8487;stroke-miterlimit:10;" x1="628.474" y1="95.221" x2="628.474" y2="187.749"/>
						
							<line style="fill:none;stroke:#FFFFFF;stroke-width:4.8487;stroke-miterlimit:10;" x1="582.21" y1="159.263" x2="674.739" y2="159.263"/>
					</g>
				</g>
				<g>
					<g>
						<polygon style="fill:#FF91CA;" points="663.62,272.251 594.328,272.261 590.223,225.637 663.703,228.373 						"/>
						<g>
							<polygon style="fill:#FFFFFF;" points="624.008,261.176 598.428,262.679 598.428,264.058 624.008,262.387 							"/>
							<polygon style="fill:#FFFFFF;" points="619.604,263.667 598.428,264.911 598.428,266.29 619.604,264.907 							"/>
							<polygon style="fill:#FFFFFF;" points="619.604,265.899 598.428,267.143 598.428,268.523 619.604,267.139 							"/>
						</g>
						<polygon style="fill:#FFFFFF;" points="635.17,259.131 590.223,225.637 663.703,228.373 						"/>
						<polygon style="fill:#73A8FF;" points="635.17,255.914 590.223,225.637 663.703,228.373 						"/>
					</g>
					<g>
						<path style="fill:#243470;" d="M659.187,232.784L659.187,232.784c-1.728-1.728-1.728-4.529,0-6.257l0,0
							c1.728-1.728,4.529-1.728,6.257,0l0,0c1.728,1.728,1.728,4.529,0,6.257l0,0C663.716,234.512,660.914,234.512,659.187,232.784z
							"/>
						<polygon style="fill:#FFFFFF;" points="665.068,229.3 662.67,229.3 662.67,226.903 661.959,226.903 661.959,229.3 
							659.562,229.3 659.562,230.011 661.959,230.011 661.959,232.409 662.67,232.409 662.67,230.011 665.068,230.011 						"/>
					</g>
				</g>
			</g>
		</g>
	</g>
</g>
<g id="OBJECTS">
</g>
</svg>
